<svg width="18" height="18" viewBox="0 0 18 18" fill="none" xmlns="http://www.w3.org/2000/svg">
<g id="vuesax/outline/logout">
<g id="logout">
<path id="Vector" d="M11.4299 16.7025H11.3324C8.00239 16.7025 6.39739 15.39 6.11989 12.45C6.08989 12.1425 6.31489 11.865 6.62989 11.835C6.92989 11.805 7.21489 12.0375 7.24489 12.345C7.46239 14.7 8.57239 15.5775 11.3399 15.5775H11.4374C14.4899 15.5775 15.5699 14.4975 15.5699 11.445V6.55499C15.5699 3.50249 14.4899 2.42249 11.4374 2.42249H11.3399C8.55739 2.42249 7.44739 3.31499 7.24489 5.71499C7.20739 6.02249 6.94489 6.25499 6.62989 6.22499C6.31489 6.20249 6.08989 5.92499 6.11239 5.61749C6.36739 2.63249 7.97989 1.29749 11.3324 1.29749H11.4299C15.1124 1.29749 16.6874 2.87249 16.6874 6.55499V11.445C16.6874 15.1275 15.1124 16.7025 11.4299 16.7025Z" fill="#FC2947"/>
<path id="Vector_2" d="M11.2501 9.5625H2.71509C2.40759 9.5625 2.15259 9.3075 2.15259 9C2.15259 8.6925 2.40759 8.4375 2.71509 8.4375H11.2501C11.5576 8.4375 11.8126 8.6925 11.8126 9C11.8126 9.3075 11.5576 9.5625 11.2501 9.5625Z" fill="#FC2947"/>
<path id="Vector_3" d="M4.38758 12.075C4.24508 12.075 4.10258 12.0225 3.99008 11.91L1.47758 9.3975C1.26008 9.18 1.26008 8.82001 1.47758 8.60251L3.99008 6.09C4.20758 5.8725 4.56758 5.8725 4.78508 6.09C5.00258 6.3075 5.00258 6.66751 4.78508 6.88501L2.67008 9.00001L4.78508 11.115C5.00258 11.3325 5.00258 11.6925 4.78508 11.91C4.68008 12.0225 4.53008 12.075 4.38758 12.075Z" fill="#FC2947"/>
</g>
</g>
</svg>
